<?xml version="1.0" standalone="no"?>
<!DOCTYPE svg PUBLIC "-//W3C//DTD SVG 20010904//EN"
 "http://www.w3.org/TR/2001/REC-SVG-20010904/DTD/svg10.dtd">
<svg version="1.0" xmlns="http://www.w3.org/2000/svg"
 width="900.000000pt" height="900.000000pt" viewBox="0 0 900.000000 900.000000"
 preserveAspectRatio="xMidYMid meet">

<g transform="translate(0.000000,900.000000) scale(0.100000,-0.100000)"
fill="#000000" stroke="none">
<path d="M4236 8772 c-2 -4 12 -6 32 -4 56 5 62 10 15 11 -23 1 -44 -3 -47 -7z"/>
<path d="M4353 8773 c15 -2 37 -2 50 0 12 2 0 4 -28 4 -27 0 -38 -2 -22 -4z"/>
<path d="M4478 8773 c18 -2 45 -2 60 0 15 2 0 4 -33 4 -33 0 -45 -2 -27 -4z"/>
<path d="M4632 8775 c8 -8 127 -10 134 -2 4 4 -26 7 -66 7 -40 0 -71 -2 -68
-5z"/>
<path d="M4108 8761 c13 -8 92 -4 101 5 2 2 -22 4 -55 4 -36 0 -54 -4 -46 -9z"/>
<path d="M4821 8766 c9 -9 69 -14 69 -5 0 5 -16 9 -37 9 -20 0 -34 -2 -32 -4z"/>
<path d="M4010 8751 c0 -5 15 -7 33 -4 45 7 47 13 4 13 -20 0 -37 -4 -37 -9z"/>
<path d="M4921 8756 c9 -9 69 -14 69 -5 0 5 -16 9 -37 9 -20 0 -34 -2 -32 -4z"/>
<path d="M3948 8743 c12 -2 30 -2 40 0 9 3 -1 5 -23 4 -22 0 -30 -2 -17 -4z"/>
<path d="M5001 8746 c9 -9 69 -14 69 -5 0 5 -16 9 -37 9 -20 0 -34 -2 -32 -4z"/>
<path d="M3825 8733 c-16 -3 -34 -9 -40 -15 -7 -7 -7 -9 0 -6 6 3 37 9 70 13
33 3 62 8 64 11 5 5 -51 3 -94 -3z"/>
<path d="M5093 8733 c9 -2 25 -2 35 0 9 3 1 5 -18 5 -19 0 -27 -2 -17 -5z"/>
<path d="M5168 8723 c6 -2 18 -2 25 0 6 3 1 5 -13 5 -14 0 -19 -2 -12 -5z"/>
<path d="M3738 8713 c6 -2 18 -2 25 0 6 3 1 5 -13 5 -14 0 -19 -2 -12 -5z"/>
<path d="M5238 8713 c7 -3 16 -2 19 1 4 3 -2 6 -13 5 -11 0 -14 -3 -6 -6z"/>
<path d="M3610 8695 c-30 -7 -46 -13 -35 -13 11 -1 47 5 80 12 33 8 49 14 35
14 -14 0 -50 -6 -80 -13z"/>
<path d="M5345 8694 c33 -7 74 -16 90 -19 17 -3 49 -11 73 -17 23 -6 45 -8 47
-6 6 6 -224 59 -250 57 -11 -1 7 -7 40 -15z"/>
<path d="M3480 8665 c-25 -7 -36 -13 -25 -13 11 0 38 5 60 13 52 17 24 17 -35
0z"/>
<path d="M3408 8643 c7 -3 16 -2 19 1 4 3 -2 6 -13 5 -11 0 -14 -3 -6 -6z"/>
<path d="M3300 8619 c-37 -12 -44 -16 -20 -13 34 6 105 33 85 32 -5 0 -35 -8
-65 -19z"/>
<path d="M5618 8633 c6 -2 18 -2 25 0 6 3 1 5 -13 5 -14 0 -19 -2 -12 -5z"/>
<path d="M5676 8621 c15 -13 74 -31 74 -22 0 5 -19 13 -41 19 -23 6 -38 7 -33
3z"/>
<path d="M3190 8585 c-19 -7 -28 -14 -20 -14 8 0 29 6 45 14 39 17 21 18 -25
0z"/>
<path d="M5760 8597 c0 -3 20 -12 45 -20 45 -16 65 -14 23 2 -43 16 -68 22
-68 18z"/>
<path d="M3020 8529 c-136 -51 -251 -101 -247 -106 2 -2 26 7 53 19 27 12 112
45 189 74 77 29 133 53 125 53 -8 0 -62 -18 -120 -40z"/>
<path d="M5910 8546 c14 -8 63 -27 111 -44 47 -17 106 -40 132 -52 26 -13 50
-20 53 -18 5 5 -70 37 -215 92 -98 38 -123 44 -81 22z"/>
<path d="M6240 8415 c14 -8 30 -14 35 -14 6 0 -1 6 -15 14 -14 8 -29 14 -35
14 -5 0 1 -6 15 -14z"/>
<path d="M2598 8345 c-132 -66 -299 -162 -333 -190 -19 -16 -19 -16 7 -1 14 8
65 38 113 66 47 28 144 80 215 116 72 36 130 67 130 69 0 7 6 10 -132 -60z"/>
<path d="M6290 8395 c0 -7 81 -47 86 -43 2 3 -17 14 -41 26 -25 12 -45 20 -45
17z"/>
<path d="M6410 8335 c0 -2 23 -16 50 -30 63 -32 66 -25 4 9 -48 27 -54 29 -54
21z"/>
<path d="M6520 8274 c0 -2 10 -9 23 -15 12 -5 40 -21 62 -34 22 -14 45 -25 50
-25 6 0 -15 15 -45 33 -58 35 -90 50 -90 41z"/>
<path d="M6695 8176 c17 -14 34 -26 39 -26 11 0 11 0 -34 29 l-35 23 30 -26z"/>
<path d="M2129 8069 c-93 -63 -152 -108 -109 -83 25 14 204 136 215 145 25 24
-11 3 -106 -62z"/>
<path d="M6806 8102 c80 -51 84 -54 84 -49 0 7 -125 87 -135 87 -4 0 18 -17
51 -38z"/>
<path d="M6909 8037 c7 -9 41 -36 75 -58 33 -23 63 -45 66 -48 4 -5 78 -63
105 -83 12 -8 193 -166 213 -185 13 -13 22 -16 22 -9 0 7 -205 182 -295 252
-124 96 -203 152 -186 131z"/>
<path d="M1900 7904 c-426 -337 -792 -742 -1051 -1159 -124 -200 -201 -345
-288 -543 -49 -111 -131 -328 -131 -345 1 -7 25 51 54 128 64 172 100 253 182
418 274 550 725 1095 1236 1491 75 58 108 87 96 86 -2 -1 -46 -35 -98 -76z"/>
<path d="M7400 7636 c0 -2 8 -10 18 -17 15 -13 16 -12 3 4 -13 16 -21 21 -21
13z"/>
<path d="M7440 7601 c0 -5 24 -28 53 -52 l52 -43 -50 52 c-52 55 -55 57 -55
43z"/>
<path d="M7596 7439 c32 -33 64 -66 69 -72 6 -7 42 -48 80 -92 39 -44 75 -85
80 -92 36 -43 77 -96 122 -157 60 -82 98 -128 87 -106 -11 23 -151 207 -212
280 -106 127 -265 300 -275 300 -6 0 16 -27 49 -61z"/>
<path d="M8057 6873 c32 -50 85 -123 89 -123 3 0 -18 34 -46 75 -28 41 -53 75
-56 75 -2 0 3 -12 13 -27z"/>
<path d="M8160 6712 c0 -5 10 -17 22 -28 l21 -19 -18 28 c-18 28 -25 33 -25
19z"/>
<path d="M8221 6612 c11 -23 25 -45 31 -48 12 -7 -14 43 -36 71 -10 12 -8 3 5
-23z"/>
<path d="M8250 6546 c0 -2 7 -7 16 -10 8 -3 12 -2 9 4 -6 10 -25 14 -25 6z"/>
<path d="M8300 6477 c0 -14 31 -69 36 -64 3 3 -4 20 -15 38 -12 19 -21 30 -21
26z"/>
<path d="M8360 6356 c0 -11 30 -66 36 -66 2 0 -3 15 -12 33 -19 36 -24 44 -24
33z"/>
<path d="M8406 6260 c8 -31 53 -130 59 -130 6 0 -6 31 -39 100 -14 30 -23 44
-20 30z"/>
<path d="M2645 6170 l-40 -7 37 -2 c20 0 40 4 43 9 3 6 5 9 3 9 -2 -1 -21 -5
-43 -9z"/>
<path d="M2782 6173 c37 -2 100 -2 140 0 40 1 10 3 -67 3 -77 0 -110 -1 -73
-3z"/>
<path d="M4688 6173 c94 -2 250 -2 345 0 94 1 17 3 -173 3 -190 0 -267 -2
-172 -3z"/>
<path d="M5380 5935 c94 -137 275 -402 402 -588 127 -186 234 -334 238 -330 4
4 107 150 230 323 123 173 235 331 250 350 14 19 67 94 118 165 50 72 124 175
163 230 39 55 64 93 55 85 -9 -9 -83 -110 -165 -225 -82 -116 -166 -232 -186
-260 -20 -27 -120 -167 -222 -310 -219 -309 -214 -302 -234 -328 -18 -23 -1
-44 -173 208 -56 83 -196 287 -311 455 -115 168 -229 334 -253 370 -25 36 -53
74 -64 85 -11 11 58 -92 152 -230z"/>
<path d="M7018 6173 c90 -2 234 -2 320 0 86 1 13 3 -163 3 -176 0 -247 -2
-157 -3z"/>
<path d="M3058 6163 c12 -2 32 -2 45 0 12 2 2 4 -23 4 -25 0 -35 -2 -22 -4z"/>
<path d="M2563 6153 c9 -2 23 -2 30 0 6 3 -1 5 -18 5 -16 0 -22 -2 -12 -5z"/>
<path d="M3155 6150 c17 -4 39 -8 50 -8 16 0 15 2 -5 8 -14 4 -36 8 -50 8 -22
0 -22 -1 5 -8z"/>
<path d="M2420 6120 c-112 -37 -91 -37 30 0 52 16 86 29 75 29 -11 0 -58 -13
-105 -29z"/>
<path d="M7233 5793 c-147 -197 -401 -537 -565 -756 -164 -219 -298 -402 -298
-407 0 -5 30 -51 67 -102 69 -96 582 -812 981 -1370 125 -174 229 -315 230
-313 5 4 6 3 -294 420 -130 182 -325 454 -434 605 -108 151 -274 383 -369 514
-94 132 -170 245 -167 251 2 7 166 228 363 491 197 263 365 488 373 500 12 18
249 334 368 492 13 17 22 32 18 32 -3 0 -126 -161 -273 -357z"/>
<path d="M3325 6106 c185 -60 334 -155 496 -316 123 -123 213 -252 292 -421
29 -63 59 -125 65 -139 l12 -25 -6 25 c-13 51 -122 268 -180 355 -113 171
-309 352 -492 453 -70 38 -245 103 -275 101 -6 0 33 -15 88 -33z"/>
<path d="M4530 6111 c14 -18 30 -40 35 -49 14 -22 32 -42 39 -42 9 0 -61 95
-81 111 -10 8 -6 -1 7 -20z"/>
<path d="M8471 6115 c1 -19 18 -51 18 -35 0 8 -4 22 -9 30 -5 8 -9 11 -9 5z"/>
<path d="M2213 6040 c-141 -67 -270 -158 -379 -265 -101 -101 -139 -146 -212
-255 -50 -76 -155 -284 -166 -330 l-6 -25 12 25 c134 283 175 352 277 470 145
168 301 288 494 381 56 26 98 48 92 48 -5 1 -56 -21 -112 -49z"/>
<path d="M8490 6055 c0 -5 5 -17 10 -25 5 -8 10 -10 10 -5 0 6 -5 17 -10 25
-5 8 -10 11 -10 5z"/>
<path d="M4605 6002 c10 -7 96 -120 180 -237 22 -31 53 -70 69 -88 19 -22 16
-15 -10 23 -100 144 -228 310 -238 310 -7 0 -7 -3 -1 -8z"/>
<path d="M8511 6002 c-1 -7 6 -26 14 -42 9 -17 16 -33 16 -37 0 -5 5 -15 10
-23 7 -11 8 -8 3 10 -11 39 -43 106 -43 92z"/>
<path d="M392 5738 c-44 -149 -104 -407 -99 -432 4 -20 4 -20 6 2 2 35 80 358
108 445 13 44 23 81 20 83 -2 2 -18 -42 -35 -98z"/>
<path d="M8571 5830 c0 -8 4 -22 9 -30 12 -18 12 -2 0 25 -6 13 -9 15 -9 5z"/>
<path d="M8597 5745 c3 -22 9 -44 14 -49 13 -15 10 13 -6 54 l-14 35 6 -40z"/>
<path d="M2764 5692 c6 -10 113 -8 123 1 3 4 -24 7 -61 7 -37 0 -65 -4 -62 -8z"/>
<path d="M2688 5683 c12 -2 30 -2 40 0 9 3 -1 5 -23 4 -22 0 -30 -2 -17 -4z"/>
<path d="M2901 5685 c9 -8 78 -12 73 -4 -3 5 -21 9 -41 9 -20 0 -34 -2 -32 -5z"/>
<path d="M2569 5665 c-30 -8 -93 -32 -140 -55 -204 -99 -344 -251 -435 -473
-31 -78 -74 -254 -74 -307 0 -20 11 -20 913 -18 l912 3 -907 2 c-788 3 -908 5
-908 18 0 8 9 59 19 113 57 291 219 517 463 642 53 28 132 59 175 69 43 10 69
19 58 19 -11 0 -45 -6 -76 -13z"/>
<path d="M2998 5673 c6 -2 18 -2 25 0 6 3 1 5 -13 5 -14 0 -19 -2 -12 -5z"/>
<path d="M3080 5654 c25 -7 50 -13 55 -13 18 1 -59 27 -80 28 -11 0 0 -7 25
-15z"/>
<path d="M8627 5639 c4 -13 8 -18 11 -10 2 7 -1 18 -6 23 -8 8 -9 4 -5 -13z"/>
<path d="M3150 5635 c0 -5 85 -45 97 -45 4 0 0 5 -10 11 -28 16 -87 40 -87 34z"/>
<path d="M4908 5599 c18 -24 48 -68 68 -96 20 -29 40 -53 45 -53 10 0 -116
176 -134 187 -6 3 4 -14 21 -38z"/>
<path d="M8641 5584 c0 -11 3 -14 6 -6 3 7 2 16 -1 19 -3 4 -6 -2 -5 -13z"/>
<path d="M3265 5583 c6 -5 40 -30 76 -56 36 -25 86 -67 111 -94 25 -26 62 -66
83 -88 33 -36 35 -37 15 -7 -35 53 -142 156 -206 199 -68 45 -94 61 -79 46z"/>
<path d="M8651 5540 c0 -8 4 -24 9 -35 5 -13 9 -14 9 -5 0 8 -4 24 -9 35 -5
13 -9 14 -9 5z"/>
<path d="M8668 5475 c-3 -4 -2 -19 3 -33 5 -15 16 -56 23 -92 8 -36 15 -54 15
-40 0 37 -33 173 -41 165z"/>
<path d="M5030 5434 c0 -3 13 -22 28 -42 119 -157 153 -203 158 -216 3 -8 12
-17 19 -20 8 -3 -15 34 -51 82 -35 48 -83 113 -105 145 -37 53 -49 66 -49 51z"/>
<path d="M3570 5295 c0 -6 10 -26 23 -45 13 -19 36 -66 51 -105 16 -38 32 -79
36 -90 5 -11 11 -27 13 -35 4 -12 6 -12 6 2 1 24 -72 199 -102 244 -15 21 -27
34 -27 29z"/>
<path d="M287 5273 c-7 -13 -31 -183 -26 -188 3 -2 11 41 20 96 14 96 15 107
6 92z"/>
<path d="M8711 5244 c0 -11 3 -14 6 -6 3 7 2 16 -1 19 -3 4 -6 -2 -5 -13z"/>
<path d="M4193 5185 c3 -11 17 -63 31 -115 14 -52 30 -111 36 -130 l10 -35 -6
40 c-7 49 -61 246 -70 254 -4 3 -4 -3 -1 -14z"/>
<path d="M8721 5184 c0 -11 3 -14 6 -6 3 7 2 16 -1 19 -3 4 -6 -2 -5 -13z"/>
<path d="M1419 5080 c-14 -44 -23 -80 -19 -80 8 0 53 150 47 156 -2 2 -15 -32
-28 -76z"/>
<path d="M5251 5135 c2 -6 20 -32 39 -58 19 -25 67 -89 105 -141 39 -51 75
-102 81 -112 7 -11 14 -17 16 -14 3 3 -47 76 -111 162 -113 153 -138 184 -130
163z"/>
<path d="M8732 5115 c0 -16 2 -22 5 -12 2 9 2 23 0 30 -3 6 -5 -1 -5 -18z"/>
<path d="M8737 5043 c5 -50 13 -55 13 -10 0 20 -4 38 -9 41 -4 3 -6 -11 -4
-31z"/>
<path d="M245 4997 c-4 -42 -5 -81 -3 -89 3 -7 8 25 12 71 4 46 5 86 2 88 -2
2 -7 -29 -11 -70z"/>
<path d="M3701 4984 c0 -11 3 -14 6 -6 3 7 2 16 -1 19 -3 4 -6 -2 -5 -13z"/>
<path d="M1387 4971 c-4 -17 -3 -21 5 -13 5 5 8 16 6 23 -3 8 -7 3 -11 -10z"/>
<path d="M8748 4978 c-2 -7 -1 -26 3 -43 6 -28 7 -26 8 13 1 42 -3 53 -11 30z"/>
<path d="M3707 4930 c3 -11 7 -20 9 -20 2 0 4 9 4 20 0 11 -4 20 -9 20 -5 0
-7 -9 -4 -20z"/>
<path d="M1378 4917 c-3 -19 -2 -25 4 -19 6 6 8 18 6 28 -3 14 -5 12 -10 -9z"/>
<path d="M3717 4893 c-2 -5 -1 -19 4 -33 7 -23 7 -23 8 8 1 31 -3 40 -12 25z"/>
<path d="M4272 4875 c0 -16 2 -22 5 -12 2 9 2 23 0 30 -3 6 -5 -1 -5 -18z"/>
<path d="M233 4835 c0 -33 2 -45 4 -27 2 18 2 45 0 60 -2 15 -4 0 -4 -33z"/>
<path d="M8763 4840 c0 -30 2 -43 4 -27 2 15 2 39 0 55 -2 15 -4 2 -4 -28z"/>
<path d="M1372 4855 c0 -16 2 -22 5 -12 2 9 2 23 0 30 -3 6 -5 -1 -5 -18z"/>
<path d="M4281 4818 c0 -15 4 -61 10 -103 6 -43 14 -139 19 -214 l9 -136 -5
150 c-5 136 -30 368 -33 303z"/>
<path d="M1355 4763 c-4 -32 -8 -68 -10 -80 -2 -13 0 -23 4 -23 8 0 24 150 17
157 -2 3 -7 -22 -11 -54z"/>
<path d="M5500 4793 c0 -5 19 -28 41 -53 l40 -45 -36 53 c-36 50 -45 60 -45
45z"/>
<path d="M222 4505 c1 -143 3 -294 7 -335 3 -41 5 69 3 245 -2 176 -5 327 -6
335 -2 8 -4 -102 -4 -245z"/>
<path d="M8769 4753 c-3 -24 1 -117 6 -121 3 -3 5 25 5 61 0 37 -2 67 -5 67
-3 0 -5 -3 -6 -7z"/>
<path d="M5580 4686 c0 -4 16 -27 35 -50 19 -24 35 -46 35 -50 0 -3 -81 -120
-180 -259 -98 -138 -196 -276 -217 -306 -21 -29 -42 -59 -48 -65 -22 -25 -57
-78 -53 -81 3 -4 47 56 332 456 l183 256 -40 49 c-47 59 -47 59 -47 50z"/>
<path d="M1339 4603 c-2 -89 1 -166 6 -171 3 -3 5 43 5 101 0 59 -2 107 -5
107 -3 0 -5 -17 -6 -37z"/>
<path d="M8773 4500 c0 -30 2 -43 4 -27 2 15 2 39 0 55 -2 15 -4 2 -4 -28z"/>
<path d="M1347 4368 c4 -68 13 -75 13 -10 0 28 -4 53 -8 56 -5 3 -7 -18 -5
-46z"/>
<path d="M8773 4365 c0 -33 2 -45 4 -27 2 18 2 45 0 60 -2 15 -4 0 -4 -33z"/>
<path d="M1926 4245 c2 -71 8 -146 14 -165 8 -31 9 -29 3 15 -3 28 -9 102 -14
165 l-7 115 4 -130z"/>
<path d="M1357 4294 c-6 -6 1 -55 9 -63 2 -2 4 12 4 32 0 37 -2 42 -13 31z"/>
<path d="M8772 4270 c0 -19 2 -27 5 -17 2 9 2 25 0 35 -3 9 -5 1 -5 -18z"/>
<path d="M1373 4185 c0 -22 2 -30 4 -17 2 12 2 30 0 40 -3 9 -5 -1 -4 -23z"/>
<path d="M8761 4175 c-1 -22 -4 -50 -5 -63 -2 -13 1 -19 6 -14 5 5 7 33 5 63
-3 47 -4 49 -6 14z"/>
<path d="M5858 3967 c-86 -127 -292 -433 -457 -679 -166 -246 -301 -450 -301
-454 0 -10 77 103 472 691 184 275 359 535 388 578 l53 78 30 -46 c16 -25 33
-45 38 -45 6 0 -49 90 -65 107 -1 2 -72 -102 -158 -230z"/>
<path d="M1381 4104 c0 -11 3 -14 6 -6 3 7 2 16 -1 19 -3 4 -6 -2 -5 -13z"/>
<path d="M243 4050 c0 -25 2 -35 4 -22 2 12 2 32 0 45 -2 12 -4 2 -4 -23z"/>
<path d="M6090 4076 c0 -12 51 -88 56 -83 3 3 -8 24 -25 48 -17 23 -31 39 -31
35z"/>
<path d="M8741 3969 c-7 -61 -11 -113 -8 -115 2 -3 10 45 17 106 7 61 11 113
8 115 -2 3 -10 -45 -17 -106z"/>
<path d="M1391 4060 c-1 -20 36 -160 44 -168 7 -7 5 2 -25 113 -10 39 -19 63
-19 55z"/>
<path d="M1951 4024 c-1 -34 38 -152 75 -228 69 -138 164 -248 291 -334 77
-52 230 -120 286 -127 41 -5 41 -5 -8 8 -73 20 -190 73 -266 122 -168 109
-305 302 -358 505 -11 41 -20 65 -20 54z"/>
<path d="M253 3965 c0 -22 2 -30 4 -17 2 12 2 30 0 40 -3 9 -5 -1 -4 -23z"/>
<path d="M6166 3955 c9 -14 18 -25 20 -25 2 0 -2 11 -8 25 -6 14 -15 25 -20
25 -5 0 -1 -11 8 -25z"/>
<path d="M262 3900 c-1 -14 3 -43 7 -65 6 -26 9 -31 9 -15 1 14 -3 43 -7 65
-6 26 -9 31 -9 15z"/>
<path d="M6306 3748 c63 -95 119 -174 124 -176 5 -2 -30 54 -78 125 -48 70
-101 149 -117 175 -17 27 -33 48 -37 48 -3 0 45 -78 108 -172z"/>
<path d="M1441 3872 c-1 -21 32 -128 35 -117 2 6 -5 37 -16 70 -10 33 -19 54
-19 47z"/>
<path d="M3988 3873 l272 -3 -6 -28 c-4 -15 -17 -64 -30 -110 -25 -86 -30
-115 -13 -72 20 48 58 203 53 211 -3 5 -128 8 -277 7 l-272 -3 273 -2z"/>
<path d="M3711 3853 c-1 -6 -4 -20 -7 -30 -5 -17 -5 -17 6 0 6 10 9 23 6 30
-3 9 -5 9 -5 0z"/>
<path d="M5006 3677 c-72 -100 -178 -249 -236 -332 -59 -82 -158 -222 -221
-310 -108 -151 -151 -215 -114 -170 15 18 207 286 463 645 45 63 120 168 166
233 47 64 82 117 78 117 -4 0 -65 -82 -136 -183z"/>
<path d="M8721 3830 c-2 -8 -4 -23 -6 -34 -2 -13 0 -15 7 -8 5 5 8 20 5 33 -2
13 -5 17 -6 9z"/>
<path d="M3693 3783 c-65 -191 -221 -338 -453 -430 -30 -11 -31 -12 -6 -8 58
12 193 87 266 148 81 68 167 183 193 260 9 26 14 47 11 47 -3 0 -7 -8 -11 -17z"/>
<path d="M282 3760 c0 -19 2 -27 5 -17 2 9 2 25 0 35 -3 9 -5 1 -5 -18z"/>
<path d="M8711 3744 c0 -11 3 -14 6 -6 3 7 2 16 -1 19 -3 4 -6 -2 -5 -13z"/>
<path d="M1480 3731 c0 -6 4 -13 10 -16 6 -3 7 1 4 9 -7 18 -14 21 -14 7z"/>
<path d="M291 3689 c1 -19 5 -45 9 -59 6 -16 7 -6 3 30 -7 63 -13 80 -12 29z"/>
<path d="M1501 3690 c0 -8 6 -26 15 -40 l15 -25 -7 25 c-3 14 -10 32 -15 40
-7 13 -8 13 -8 0z"/>
<path d="M8690 3633 c-6 -32 -20 -91 -30 -132 -10 -40 -15 -70 -10 -65 10 11
63 244 56 251 -2 2 -10 -22 -16 -54z"/>
<path d="M4160 3553 c-137 -311 -439 -562 -798 -662 -59 -16 -127 -34 -152
-40 l-45 -11 45 6 c71 8 253 62 338 100 218 100 422 271 538 451 43 67 119
221 112 228 -2 3 -20 -30 -38 -72z"/>
<path d="M1530 3616 c0 -13 80 -155 91 -161 5 -4 -7 24 -28 62 -42 79 -63 111
-63 99z"/>
<path d="M311 3590 c0 -8 8 -46 18 -85 11 -38 19 -63 20 -55 0 8 -8 47 -18 85
-11 39 -19 63 -20 55z"/>
<path d="M6440 3555 c0 -12 69 -113 82 -121 12 -8 7 1 -50 89 -23 35 -32 44
-32 32z"/>
<path d="M1647 3413 c31 -51 125 -163 136 -163 6 0 -5 17 -25 38 -19 20 -54
63 -78 95 -45 60 -62 76 -33 30z"/>
<path d="M355 3400 c11 -58 97 -332 117 -375 21 -45 21 -45 -33 120 -22 66
-49 156 -60 200 -22 83 -36 116 -24 55z"/>
<path d="M6530 3416 c0 -2 8 -10 18 -17 15 -13 16 -12 3 4 -13 16 -21 21 -21
13z"/>
<path d="M6570 3361 c5 -11 15 -23 21 -27 6 -3 3 5 -6 20 -20 30 -30 35 -15 7z"/>
<path d="M3168 3333 c6 -2 18 -2 25 0 6 3 1 5 -13 5 -14 0 -19 -2 -12 -5z"/>
<path d="M8610 3300 c-6 -23 -9 -44 -7 -46 2 -3 9 14 15 38 6 23 9 44 7 46 -2
2 -9 -15 -15 -38z"/>
<path d="M2658 3323 c6 -2 18 -2 25 0 6 3 1 5 -13 5 -14 0 -19 -2 -12 -5z"/>
<path d="M3075 3320 l-40 -7 35 -1 c19 0 46 4 60 8 32 10 2 10 -55 0z"/>
<path d="M2713 3313 c9 -2 25 -2 35 0 9 3 1 5 -18 5 -19 0 -27 -2 -17 -5z"/>
<path d="M6605 3310 c33 -60 325 -488 325 -477 0 8 -306 466 -323 482 -7 7 -7
5 -2 -5z"/>
<path d="M2833 3303 c37 -2 97 -2 135 0 37 2 6 3 -68 3 -74 0 -105 -1 -67 -3z"/>
<path d="M1835 3193 c28 -27 64 -58 80 -68 21 -13 16 -6 -15 22 -82 74 -118
99 -65 46z"/>
<path d="M8586 3225 c-3 -9 -6 -22 -5 -28 0 -7 5 -1 10 12 5 13 8 26 5 28 -2
2 -6 -3 -10 -12z"/>
<path d="M8541 3082 c-29 -81 -25 -92 5 -13 14 35 23 65 21 68 -2 2 -14 -23
-26 -55z"/>
<path d="M1950 3102 c0 -4 10 -13 23 -21 22 -14 22 -14 3 8 -20 22 -26 25 -26
13z"/>
<path d="M2008 3057 c13 -16 112 -71 117 -65 2 2 -26 20 -62 41 -36 20 -61 31
-55 24z"/>
<path d="M8499 2973 c-5 -14 -8 -30 -6 -36 1 -5 8 7 14 27 13 42 7 49 -8 9z"/>
<path d="M496 2960 c9 -35 76 -191 80 -187 3 3 -49 133 -77 192 -8 17 -8 16
-3 -5z"/>
<path d="M2180 2965 c0 -18 292 -116 341 -114 20 1 21 2 4 6 -73 16 -243 68
-289 88 -31 14 -56 23 -56 20z"/>
<path d="M8467 2888 c-26 -63 -28 -84 -2 -29 14 30 23 56 21 59 -3 2 -11 -11
-19 -30z"/>
<path d="M2563 2843 c9 -2 23 -2 30 0 6 3 -1 5 -18 5 -16 0 -22 -2 -12 -5z"/>
<path d="M2648 2833 c7 -3 16 -2 19 1 4 3 -2 6 -13 5 -11 0 -14 -3 -6 -6z"/>
<path d="M2680 2835 c0 -7 30 -13 34 -7 3 4 -4 9 -15 9 -10 1 -19 0 -19 -2z"/>
<path d="M3045 2829 c-3 -4 2 -6 10 -5 21 3 28 13 10 13 -9 0 -18 -4 -20 -8z"/>
<path d="M3108 2833 c6 -2 18 -2 25 0 6 3 1 5 -13 5 -14 0 -19 -2 -12 -5z"/>
<path d="M2793 2823 c26 -2 67 -2 90 0 23 2 2 3 -48 3 -49 0 -68 -1 -42 -3z"/>
<path d="M2968 2823 c12 -2 32 -2 45 0 12 2 2 4 -23 4 -25 0 -35 -2 -22 -4z"/>
<path d="M4434 2823 c10 -11 617 -12 636 -2 8 5 -133 9 -314 9 -181 0 -326 -3
-322 -7z"/>
<path d="M6948 2822 c15 -10 678 -10 688 1 4 4 -152 7 -347 7 -195 0 -348 -4
-341 -8z"/>
<path d="M8425 2789 c-4 -6 -5 -12 -2 -15 2 -3 7 2 10 11 7 17 1 20 -8 4z"/>
<path d="M580 2757 c0 -5 33 -74 74 -155 287 -575 725 -1101 1271 -1527 83
-65 342 -242 395 -270 41 -22 -15 19 -109 79 -132 86 -339 240 -461 346 -196
169 -458 440 -613 635 -27 33 -53 67 -60 75 -124 154 -304 443 -422 678 -41
81 -74 143 -75 139z"/>
<path d="M8347 2622 c-38 -75 -64 -132 -58 -127 13 13 133 256 129 261 -2 1
-34 -59 -71 -134z"/>
<path d="M8256 2449 c-22 -45 -20 -50 5 -11 12 18 19 35 16 38 -3 3 -12 -9
-21 -27z"/>
<path d="M8212 2369 c-9 -17 -63 -102 -120 -188 -57 -86 -106 -159 -108 -163
-3 -5 -3 -8 0 -8 5 0 201 295 234 353 12 20 19 37 16 37 -3 0 -13 -14 -22 -31z"/>
<path d="M7950 1978 c-29 -44 -32 -53 -6 -23 22 26 32 45 23 45 -1 0 -9 -10
-17 -22z"/>
<path d="M7828 1821 c-89 -111 -198 -230 -316 -349 -46 -46 -82 -86 -79 -88 5
-5 162 157 272 281 100 112 208 245 204 249 -2 2 -39 -40 -81 -93z"/>
<path d="M7399 1364 c-23 -27 -208 -186 -312 -267 -219 -171 -422 -299 -697
-440 -96 -49 -164 -86 -150 -82 33 10 179 83 315 158 128 70 351 215 481 313
151 114 403 334 382 334 -3 0 -12 -7 -19 -16z"/>
<path d="M2345 792 c6 -5 42 -27 80 -48 39 -20 66 -33 60 -27 -14 14 -153 88
-140 75z"/>
<path d="M2500 705 c0 -12 379 -189 387 -181 2 2 -27 16 -64 32 -37 16 -125
57 -195 91 -71 34 -128 60 -128 58z"/>
<path d="M6157 549 c-19 -11 -199 -80 -287 -110 -32 -11 -41 -16 -22 -13 62
11 371 133 337 133 -5 0 -18 -4 -28 -10z"/>
<path d="M2910 510 c8 -5 22 -9 30 -9 10 0 8 3 -5 9 -27 12 -43 12 -25 0z"/>
<path d="M2995 481 c22 -10 51 -21 65 -25 14 -3 7 2 -15 13 -22 10 -51 21 -65
25 -14 3 -7 -2 15 -13z"/>
<path d="M3235 399 c66 -21 129 -38 140 -38 l20 1 -20 5 c-11 2 -70 20 -131
39 -62 19 -116 34 -120 33 -5 -1 45 -19 111 -40z"/>
<path d="M5745 400 c-13 -6 -15 -9 -5 -9 8 0 22 4 30 9 18 12 2 12 -25 0z"/>
<path d="M5650 374 c-30 -8 -36 -12 -20 -12 14 0 41 6 60 13 44 17 20 17 -40
-1z"/>
<path d="M3408 353 c7 -3 16 -2 19 1 4 3 -2 6 -13 5 -11 0 -14 -3 -6 -6z"/>
<path d="M5578 353 c7 -3 16 -2 19 1 4 3 -2 6 -13 5 -11 0 -14 -3 -6 -6z"/>
<path d="M3448 343 c7 -3 16 -2 19 1 4 3 -2 6 -13 5 -11 0 -14 -3 -6 -6z"/>
<path d="M5538 343 c7 -3 16 -2 19 1 4 3 -2 6 -13 5 -11 0 -14 -3 -6 -6z"/>
<path d="M3480 337 c0 -7 150 -40 156 -34 2 2 -22 9 -53 16 -32 7 -68 15 -80
18 -13 3 -23 3 -23 0z"/>
<path d="M5498 333 c7 -3 16 -2 19 1 4 3 -2 6 -13 5 -11 0 -14 -3 -6 -6z"/>
<path d="M5458 323 c7 -3 16 -2 19 1 4 3 -2 6 -13 5 -11 0 -14 -3 -6 -6z"/>
<path d="M5345 305 c-36 -8 -48 -13 -30 -13 17 0 53 6 80 13 64 16 28 16 -50
0z"/>
<path d="M3663 293 c9 -2 25 -2 35 0 9 3 1 5 -18 5 -19 0 -27 -2 -17 -5z"/>
<path d="M3733 283 c9 -2 23 -2 30 0 6 3 -1 5 -18 5 -16 0 -22 -2 -12 -5z"/>
<path d="M5233 283 c9 -2 25 -2 35 0 9 3 1 5 -18 5 -19 0 -27 -2 -17 -5z"/>
<path d="M3803 273 c9 -2 23 -2 30 0 6 3 -1 5 -18 5 -16 0 -22 -2 -12 -5z"/>
<path d="M5120 270 c-27 -6 -29 -8 -10 -8 14 -1 43 3 65 7 33 7 35 9 10 9 -16
-1 -46 -4 -65 -8z"/>
<path d="M3930 254 c47 -7 103 -12 125 -12 22 0 -5 6 -60 14 -127 17 -178 16
-65 -2z"/>
<path d="M5018 253 c12 -2 32 -2 45 0 12 2 2 4 -23 4 -25 0 -35 -2 -22 -4z"/>
<path d="M4928 243 c12 -2 32 -2 45 0 12 2 2 4 -23 4 -25 0 -35 -2 -22 -4z"/>
<path d="M4128 233 c18 -2 45 -2 60 0 15 2 0 4 -33 4 -33 0 -45 -2 -27 -4z"/>
<path d="M4229 227 c4 -4 52 -6 107 -5 l99 3 -107 5 c-59 3 -104 1 -99 -3z"/>
<path d="M4823 233 c15 -2 39 -2 55 0 15 2 2 4 -28 4 -30 0 -43 -2 -27 -4z"/>
<path d="M4562 223 c37 -2 100 -2 140 0 40 1 10 3 -67 3 -77 0 -110 -1 -73 -3z"/>
</g>
</svg>
